<svg width="512" height="512" viewBox="0 0 512 512" fill="none" xmlns="http://www.w3.org/2000/svg">
  <style>
    .bg-circle { fill: #95795E; }
    .ux-text { fill: white; }
    @media (prefers-color-scheme: dark) {
      .bg-circle { fill: #342B26; }
    }
  </style>
  <circle cx="256" cy="256" r="256" class="bg-circle"/>
  <path class="ux-text" d="M153.702 386.023C127.629 386.023 106.958 378.977 91.6901 364.883C76.657 350.789 69.1404 331.528 69.1404 307.099V125.292H121.991V306.747C121.991 317.552 124.693 325.891 130.095 331.763C135.733 337.401 143.602 340.219 153.702 340.219C163.567 340.219 171.319 337.401 176.956 331.763C182.594 325.891 185.412 317.552 185.412 306.747V125.292H238.263V307.099C238.263 331.293 230.629 350.555 215.361 364.883C200.328 378.977 179.775 386.023 153.702 386.023ZM259.266 382.5L328.325 249.668L263.847 125.292H321.983L348.76 181.666C351.344 186.834 353.458 191.532 355.103 195.76C356.982 199.988 358.156 203.042 358.626 204.921C359.096 203.042 360.153 199.988 361.797 195.76C363.441 191.532 365.438 186.834 367.787 181.666L395.269 125.292H451.996L387.518 249.668L456.576 382.5H398.44L367.434 319.079C365.086 313.911 362.972 309.096 361.092 304.633C359.213 300.17 357.804 296.764 356.864 294.415C356.16 296.764 354.985 300.17 353.341 304.633C351.697 309.096 349.583 313.911 346.999 319.079L315.993 382.5H259.266Z"/>
</svg>